<?xml version="1.0" standalone="no"?>
<!DOCTYPE svg PUBLIC "-//W3C//DTD SVG 20010904//EN"
 "http://www.w3.org/TR/2001/REC-SVG-20010904/DTD/svg10.dtd">
<svg version="1.0" xmlns="http://www.w3.org/2000/svg"
 width="300.000000pt" height="105.000000pt" viewBox="0 0 300.000000 105.000000"
 preserveAspectRatio="xMidYMid meet">
<metadata>
Created by potrace 1.10, written by Peter Selinger 2001-2011
</metadata>
<g transform="translate(0.000000,105.000000) scale(0.100000,-0.100000)"
fill="#000000" stroke="none">
<path d="M0 525 l0 -525 1500 0 1500 0 0 525 0 525 -1500 0 -1500 0 0 -525z
m2108 319 c40 -28 18 -84 -33 -84 -47 0 -64 57 -27 88 21 16 33 15 60 -4z
m296 6 c23 -8 24 -12 14 -40 -9 -28 -14 -30 -39 -25 -46 10 -69 -2 -69 -36 0
-28 1 -29 50 -29 l50 0 0 -35 0 -35 -50 0 -50 0 0 -135 0 -135 -42 0 -43 0 3
135 3 135 -25 0 c-23 0 -26 4 -26 35 0 30 3 35 23 35 20 0 22 4 19 33 -4 36
25 82 62 97 29 12 89 12 120 0z m-1960 -155 c-3 -14 -4 -25 -1 -25 4 0 17 11
31 25 20 20 35 25 75 25 42 0 53 -4 72 -27 l23 -28 27 28 c22 21 37 27 72 27
93 0 101 -14 107 -198 l5 -142 -42 0 -43 0 0 123 c0 132 -5 147 -50 147 -57 0
-65 -17 -68 -149 l-4 -121 -41 0 -42 0 3 115 c4 134 -3 155 -53 155 -55 0 -65
-25 -65 -157 l0 -113 -45 0 -45 0 0 170 0 170 45 0 c43 0 45 -1 39 -25z m578
-73 c-2 -54 0 -113 5 -132 8 -32 13 -35 50 -38 63 -5 73 17 73 155 l0 113 45
0 45 0 0 -170 0 -170 -40 0 c-36 0 -40 3 -40 25 0 30 -11 32 -27 5 -7 -10 -31
-24 -53 -30 -35 -9 -47 -8 -78 7 -55 27 -62 50 -62 201 l0 132 43 0 42 0 -3
-98z m390 -10 c-2 -59 1 -120 7 -135 9 -23 16 -27 50 -27 61 0 71 21 71 157
l0 113 45 0 45 0 0 -170 0 -170 -44 0 c-41 0 -43 1 -38 25 5 30 -8 33 -25 6
-15 -24 -75 -42 -113 -34 -16 3 -39 16 -52 30 -21 23 -23 34 -26 169 l-3 144
43 0 43 0 -3 -108z m517 87 l34 -21 -25 -24 c-24 -25 -25 -25 -60 -8 -40 19
-85 13 -95 -12 -8 -22 6 -32 73 -49 78 -21 109 -51 108 -106 -3 -90 -123 -135
-225 -83 -45 23 -50 36 -23 68 l25 28 22 -20 c28 -25 62 -35 93 -28 20 5 25
12 22 33 -2 22 -10 29 -48 38 -65 17 -108 41 -116 67 -18 57 3 109 51 129 40
16 128 10 164 -12z m191 -149 l0 -170 -45 0 -45 0 0 170 0 170 45 0 45 0 0
-170z m424 58 c22 -62 42 -116 45 -120 4 -5 25 45 48 110 l40 117 42 3 c22 2
41 -1 41 -5 0 -21 -151 -399 -168 -422 -26 -36 -59 -51 -114 -51 -53 0 -62 8
-53 51 5 24 11 29 26 24 32 -10 75 4 89 30 11 21 6 41 -48 182 -34 87 -64 166
-68 176 -5 15 0 17 38 17 l44 0 38 -112z"/>
<path d="M2060 805 c0 -8 7 -15 15 -15 8 0 15 7 15 15 0 8 -7 15 -15 15 -8 0
-15 -7 -15 -15z"/>
<path d="M2272 804 c-16 -11 -22 -25 -22 -53 0 -22 -6 -44 -15 -51 -14 -12
-13 -15 5 -35 18 -19 20 -34 20 -138 0 -71 4 -117 10 -117 6 0 10 46 10 118 0
105 2 121 19 136 19 17 19 18 0 37 -25 25 -24 67 3 96 26 27 6 32 -30 7z"/>
<path d="M565 659 c29 -29 30 -34 33 -140 3 -60 8 -109 13 -109 5 0 9 40 9 89
0 49 4 101 10 115 8 21 5 29 -21 50 -17 15 -40 26 -52 26 -19 0 -19 -2 8 -31z"/>
<path d="M756 672 c36 -29 44 -57 44 -161 0 -61 4 -101 10 -101 6 0 10 48 10
124 0 118 -1 126 -22 140 -12 9 -32 16 -43 16 -20 0 -20 -1 1 -18z"/>
<path d="M400 544 c0 -87 4 -133 10 -129 6 3 10 47 10 96 0 50 5 99 10 109 10
20 -5 60 -22 60 -5 0 -8 -61 -8 -136z"/>
<path d="M970 567 c0 -129 11 -157 61 -157 l29 0 -32 29 c-32 29 -32 30 -36
135 -3 58 -8 106 -13 106 -5 0 -9 -51 -9 -113z"/>
<path d="M1178 583 c-2 -54 -7 -105 -11 -113 -4 -9 1 -25 13 -40 l20 -25 0
138 c0 157 -17 188 -22 40z"/>
<path d="M1360 568 c0 -136 10 -158 68 -157 36 1 36 1 10 10 -42 16 -60 66
-57 166 1 58 -2 88 -10 91 -8 3 -11 -29 -11 -110z"/>
<path d="M1570 589 c0 -50 -5 -99 -10 -110 -8 -14 -6 -25 6 -44 9 -14 19 -24
21 -21 3 3 6 183 3 254 0 6 -4 12 -10 12 -6 0 -10 -37 -10 -91z"/>
<path d="M1752 668 c-7 -7 -12 -28 -12 -48 0 -36 5 -41 65 -69 6 -2 -2 9 -17
26 -32 33 -35 58 -11 85 13 15 14 18 2 18 -8 0 -20 -5 -27 -12z"/>
<path d="M1820 556 c0 -2 7 -7 16 -10 8 -3 12 -2 9 4 -6 10 -25 14 -25 6z"/>
<path d="M1883 523 c31 -33 33 -49 11 -81 -20 -29 -14 -36 13 -17 27 19 35 80
14 99 -9 8 -27 17 -41 21 l-25 7 28 -29z"/>
<path d="M1740 440 c0 -5 10 -15 23 -21 22 -12 22 -12 3 10 -21 23 -26 26 -26
11z"/>
<path d="M2077 683 c-11 -11 -8 -273 3 -273 6 0 10 53 10 140 0 77 -1 140 -3
140 -2 0 -7 -3 -10 -7z"/>
<path d="M2481 628 c51 -130 99 -259 99 -268 0 -5 -16 -28 -36 -50 -20 -22
-31 -40 -24 -40 26 0 69 64 105 157 84 220 95 253 82 253 -7 0 -28 -44 -46
-97 -19 -54 -41 -106 -49 -116 -14 -16 -17 -16 -33 -1 -10 9 -25 35 -33 58 -9
22 -25 67 -37 99 -12 33 -26 57 -35 57 -11 0 -10 -10 7 -52z"/>
<path d="M2468 273 c6 -2 18 -2 25 0 6 3 1 5 -13 5 -14 0 -19 -2 -12 -5z"/>
</g>
</svg>
