<?xml version="1.0" standalone="no"?>
<!DOCTYPE svg PUBLIC "-//W3C//DTD SVG 20010904//EN"
 "http://www.w3.org/TR/2001/REC-SVG-20010904/DTD/svg10.dtd">
<svg version="1.0" xmlns="http://www.w3.org/2000/svg"
 width="300.000000pt" height="125.000000pt" viewBox="0 0 300.000000 125.000000"
 preserveAspectRatio="xMidYMid meet">
<metadata>
Created by potrace 1.10, written by Peter Selinger 2001-2011
</metadata>
<g transform="translate(0.000000,125.000000) scale(0.100000,-0.100000)"
fill="#000000" stroke="none">
<path d="M530 988 c-107 -41 -177 -106 -228 -216 -25 -52 -27 -68 -27 -177 0
-114 2 -123 31 -185 58 -119 163 -200 290 -220 85 -14 1623 -13 1700 1 123 22
224 101 281 218 24 49 28 70 31 168 3 87 0 125 -13 164 -34 102 -114 191 -214
238 l-56 26 -870 2 c-861 2 -871 2 -925 -19z m1832 -30 c111 -52 171 -118 208
-229 18 -52 21 -80 18 -154 -8 -153 -76 -263 -208 -332 l-55 -28 -880 0 -880
0 -58 27 c-68 32 -142 105 -177 174 -23 45 -25 60 -25 179 0 118 2 135 24 180
52 105 150 182 264 205 23 4 418 7 877 7 l835 -2 57 -27z"/>
<path d="M584 951 c-102 -25 -208 -119 -240 -213 -29 -83 -25 -227 8 -299 33
-73 77 -121 146 -161 l57 -33 885 0 885 0 50 27 c71 37 137 112 164 184 19 49
22 75 19 154 -3 84 -7 104 -36 162 -37 76 -82 120 -162 157 l-55 26 -845 2
c-465 1 -859 -2 -876 -6z m1784 -55 c60 -34 101 -76 134 -139 26 -50 37 -207
19 -273 -29 -107 -129 -195 -243 -214 -39 -6 -365 -10 -853 -10 -842 0 -850 1
-928 49 -54 33 -88 72 -116 131 -23 48 -26 68 -26 160 0 101 1 108 34 168 42
78 93 119 191 155 8 3 402 5 875 4 l860 -2 53 -29z"/>
<path d="M1788 819 c-31 -18 -41 -47 -27 -80 6 -16 9 -33 5 -36 -3 -4 -28 4
-55 17 -56 26 -102 23 -145 -11 l-26 -20 -26 20 c-15 12 -37 21 -50 21 -29 0
-66 -46 -63 -80 2 -43 -1 -94 -6 -89 -2 3 -7 34 -9 68 -6 71 -25 101 -64 101
-14 0 -34 -7 -43 -16 -17 -15 -20 -15 -43 0 -64 41 -106 9 -106 -82 0 -33 -4
-64 -10 -67 -6 -4 -10 18 -10 58 0 53 -4 67 -23 85 -29 27 -57 28 -88 3 -23
-18 -24 -18 -52 3 -19 14 -40 20 -68 18 -50 -3 -96 -4 -134 -2 -89 5 -130 -1
-152 -22 -21 -19 -23 -30 -23 -117 0 -116 12 -145 59 -149 39 -4 71 20 71 55
0 12 5 23 10 23 6 0 10 -10 10 -22 1 -68 97 -82 122 -19 7 19 12 22 15 11 17
-49 78 -66 115 -33 17 15 21 15 57 -5 33 -19 48 -21 119 -15 61 4 86 11 98 24
16 18 18 18 48 -4 27 -19 42 -22 116 -19 51 1 93 8 106 17 19 12 24 12 45 -3
34 -24 135 -23 171 2 25 16 29 17 43 2 23 -22 67 -20 94 5 l23 21 14 -21 c10
-14 26 -21 48 -21 46 0 66 26 66 86 0 58 9 94 22 94 11 0 55 -95 64 -138 6
-28 4 -32 -14 -32 -21 0 -62 -43 -62 -65 0 -6 11 -22 25 -35 20 -19 32 -22 65
-17 80 10 104 41 168 217 46 127 48 137 27 160 -36 40 -78 24 -122 -46 -11
-18 -11 -18 -18 1 -12 32 -47 65 -68 65 -16 0 -18 5 -13 25 5 19 0 32 -18 50
-35 35 -103 35 -145 -1 l-31 -26 -31 26 c-33 28 -53 32 -81 15z m70 -51 c3
-22 -2 -29 -22 -34 -30 -7 -56 10 -56 36 0 25 11 31 45 28 24 -2 31 -8 33 -30z
m207 22 c3 -6 3 -19 0 -31 -5 -16 -12 -19 -34 -14 -19 4 -32 1 -41 -10 -20
-24 -2 -34 74 -37 l69 -3 25 -78 c14 -43 28 -75 31 -70 4 4 17 41 30 81 22 72
22 72 58 72 29 0 34 -3 28 -17 -3 -10 -29 -76 -56 -148 -57 -151 -77 -175
-145 -175 -42 0 -44 1 -44 29 0 28 3 30 42 33 31 2 44 8 46 20 2 10 -16 68
-40 129 -24 62 -44 105 -46 95 -2 -11 -14 -16 -38 -16 l-34 0 0 -95 0 -95 -35
0 -35 0 0 95 c0 78 -3 95 -15 95 -9 0 -15 9 -15 25 0 16 6 25 15 25 10 0 15
10 15 30 0 46 31 70 89 70 28 0 53 -5 56 -10z m-1284 -99 c23 -18 24 -18 50 1
21 16 36 19 63 14 55 -10 66 -35 66 -148 l0 -98 -35 0 -34 0 -3 93 -3 92 -27
3 c-37 4 -51 -31 -46 -118 l3 -65 -32 -3 -33 -3 0 80 c0 94 -5 111 -34 111
-38 0 -46 -19 -46 -107 l0 -83 -35 0 -35 0 0 120 0 120 35 0 c19 0 35 -5 35
-11 0 -5 10 -3 22 5 30 21 61 20 89 -3z m925 3 c40 -19 41 -24 14 -49 -16 -14
-23 -16 -32 -7 -14 14 -64 16 -73 3 -7 -13 11 -24 59 -36 23 -6 47 -21 59 -37
17 -23 18 -31 8 -56 -21 -50 -88 -66 -155 -38 -46 19 -52 33 -24 55 20 17 25
18 39 5 8 -8 30 -14 48 -14 49 0 38 31 -16 45 -72 18 -102 64 -69 107 28 38
89 47 142 22z m-626 -84 l0 -90 28 0 c44 0 52 16 52 102 l0 78 35 0 35 0 0
-121 0 -120 -32 3 c-20 2 -32 8 -31 16 4 17 -12 15 -27 -3 -17 -21 -73 -19
-101 4 -22 17 -24 29 -29 120 l-5 101 38 0 37 0 0 -90z m275 3 l0 -88 30 -3
c42 -5 55 19 55 105 l0 73 33 0 32 0 -1 -117 -2 -118 -26 -3 c-17 -2 -28 2
-32 12 -5 14 -8 14 -27 1 -25 -17 -70 -20 -97 -5 -26 14 -40 70 -40 158 l0 72
38 0 37 0 0 -87z m499 -31 l-2 -117 -31 0 -32 0 -2 118 -2 117 35 0 35 0 -1
-118z"/>
</g>
</svg>
